<svg xmlns="http://www.w3.org/2000/svg" version="1.1" xmlns:xlink="http://www.w3.org/1999/xlink" width="1000" height="1000"><g clip-path="url(#SvgjsClipPath1199)"><rect width="1000" height="1000" fill="#ffffff"></rect><g transform="matrix(1,0,0,1,100,100)"><svg xmlns="http://www.w3.org/2000/svg" version="1.1" xmlns:xlink="http://www.w3.org/1999/xlink" width="800px" height="800px"><svg height="800px" width="800px" version="1.1" id="Layer_1" xmlns="http://www.w3.org/2000/svg" xmlns:xlink="http://www.w3.org/1999/xlink" viewBox="0 0 504.126 504.126" xml:space="preserve">
<path style="fill:#29304C;" d="M502.227,427.978L374.164,62.67c-2.402-6.845-8.854-11.445-16.116-11.445H145.891
	c-7.263,0-13.722,4.6-16.124,11.445L0.956,430.16c-1.82,5.23-1.016,11.012,2.198,15.541c3.19,4.506,8.389,7.2,13.934,7.2h469.78
	c0.087,0,0.134,0,0.165,0c9.444,0,17.093-7.664,17.093-17.093C504.118,432.996,503.44,430.318,502.227,427.978z"></path>
<path style="fill:#070A14;" d="M486.867,452.901c0.087,0,0.134,0,0.165,0c9.444,0,17.093-7.664,17.093-17.093
	c0-2.812-0.685-5.49-1.89-7.83L374.164,62.67c-2.402-6.845-8.854-11.445-16.116-11.445H145.891c-7.263,0-13.722,4.6-16.124,11.445"></path>
<g>
	<path style="fill:#F7C800;" d="M258.949,119.636c0,3.797-3.08,6.892-6.892,6.892l0,0c-3.812,0-6.892-3.096-6.892-6.892V80.251
		c0-3.812,3.08-6.892,6.892-6.892l0,0c3.812,0,6.892,3.08,6.892,6.892V119.636z"></path>
	<path style="fill:#F7C800;" d="M258.949,221.051c0,3.797-3.08,6.892-6.892,6.892l0,0c-3.812,0-6.892-3.096-6.892-6.892v-39.385
		c0-3.812,3.08-6.892,6.892-6.892l0,0c3.812,0,6.892,3.08,6.892,6.892V221.051z"></path>
	<path style="fill:#F7C800;" d="M258.949,322.467c0,3.797-3.08,6.892-6.892,6.892l0,0c-3.812,0-6.892-3.096-6.892-6.892v-39.385
		c0-3.812,3.08-6.892,6.892-6.892l0,0c3.812,0,6.892,3.08,6.892,6.892V322.467z"></path>
	<path style="fill:#F7C800;" d="M258.949,423.882c0,3.797-3.08,6.892-6.892,6.892l0,0c-3.812,0-6.892-3.096-6.892-6.892v-39.385
		c0-3.812,3.08-6.892,6.892-6.892l0,0c3.812,0,6.892,3.08,6.892,6.892V423.882z"></path>
</g>
</svg></svg></g></g><defs><clipPath id="SvgjsClipPath1199"><rect width="1000" height="1000" x="0" y="0" rx="200" ry="200"></rect></clipPath></defs></svg>