<?xml version="1.0" encoding="UTF-8" standalone="no"?>
<svg
   id="Layer_1"
   version="1.1"
   viewBox="0 0 410.70001 142.7"
   sodipodi:docname="logo_fullcolour.svg"
   width="410.70001"
   height="142.7"
   inkscape:version="1.4.2 (ebf0e940, 2025-05-08)"
   xmlns:inkscape="http://www.inkscape.org/namespaces/inkscape"
   xmlns:sodipodi="http://sodipodi.sourceforge.net/DTD/sodipodi-0.dtd"
   xmlns="http://www.w3.org/2000/svg"
   xmlns:svg="http://www.w3.org/2000/svg">
  <sodipodi:namedview
     id="namedview25"
     pagecolor="#ffffff"
     bordercolor="#000000"
     borderopacity="0.25"
     inkscape:showpageshadow="2"
     inkscape:pageopacity="0.0"
     inkscape:pagecheckerboard="0"
     inkscape:deskcolor="#d1d1d1"
     inkscape:zoom="1.2114422"
     inkscape:cx="226.58944"
     inkscape:cy="37.558541"
     inkscape:window-width="1264"
     inkscape:window-height="608"
     inkscape:window-x="0"
     inkscape:window-y="25"
     inkscape:window-maximized="0"
     inkscape:current-layer="Layer_1" />
  <!-- Generator: Adobe Illustrator 29.3.1, SVG Export Plug-In . SVG Version: 2.1.0 Build 151)  -->
  <defs
     id="defs1">
    <style
       id="style1">
      .st0 {
        fill: #231f20;
      }

      .st1 {
        fill: #fff;
      }

      .st2 {
        fill: #ffc222;
      }
    </style>
  </defs>
  <rect
     class="st0"
     x="10"
     y="10"
     width="390.70001"
     height="122.7"
     id="rect1" />
  <g
     id="g16"
     transform="translate(-196.30001,-240.1)">
    <path
       class="st1"
       d="m 234.3,335 h 4.1 c 2.3,0 3.5,1.6 3.5,3.3 0,1.7 -1.2,3.3 -3.5,3.3 h -1.5 v 3.7 h -2.5 V 335 Z m 3.9,4.4 c 0.7,0 1.1,-0.5 1.1,-1.1 0,-0.6 -0.4,-1.1 -1.1,-1.1 h -1.4 v 2.1 h 1.4 z"
       id="path1" />
    <path
       class="st1"
       d="m 257.6,335 h 1.9 l 3.8,10.3 h -2.7 l -0.5,-1.5 h -3.2 l -0.5,1.5 h -2.7 l 3.8,-10.3 z m 1.9,6.6 -0.9,-2.8 -0.9,2.8 z"
       id="path2" />
    <path
       class="st1"
       d="m 274.9,335 h 2.6 l 1.7,5.8 1.7,-5.8 h 2.6 l -3.4,10.3 h -1.9 L 274.8,335 Z"
       id="path3" />
    <path
       class="st1"
       d="m 296.2,335 h 7 v 2.3 h -4.5 v 1.7 h 3.8 v 2.3 h -3.8 v 1.8 h 4.5 v 2.3 h -7 v -10.3 z"
       id="path4" />
    <path
       class="st1"
       d="m 316.6,335 h 2.5 l 2.3,4.5 2.3,-4.5 h 2.5 v 10.3 h -2.5 v -4.9 l -1.5,2.5 h -1.6 l -1.5,-2.5 v 4.9 h -2.5 z"
       id="path5" />
    <path
       class="st1"
       d="m 339.9,335 h 7 v 2.3 h -4.5 v 1.7 h 3.8 v 2.3 h -3.8 v 1.8 h 4.5 v 2.3 h -7 v -10.3 z"
       id="path6" />
    <path
       class="st1"
       d="m 360.3,335 h 2.2 l 3.3,5.2 V 335 h 2.5 v 10.3 h -2.2 l -3.3,-5.2 v 5.2 h -2.5 z"
       id="path7" />
    <path
       class="st1"
       d="m 383.9,337.2 h -2.5 v -2.3 h 7.6 v 2.3 h -2.5 v 8.1 H 384 v -8.1 z"
       id="path8" />
    <path
       class="st1"
       d="m 416.8,335 h 2.5 l 2.3,4.5 2.3,-4.5 h 2.5 v 10.3 h -2.5 v -4.9 l -1.5,2.5 h -1.6 l -1.5,-2.5 v 4.9 h -2.5 z"
       id="path9" />
    <path
       class="st1"
       d="m 442.8,335 h 1.9 l 3.8,10.3 h -2.7 l -0.5,-1.5 h -3.2 l -0.5,1.5 h -2.7 l 3.8,-10.3 z m 1.9,6.6 -0.9,-2.8 -0.9,2.8 z"
       id="path10" />
    <path
       class="st1"
       d="m 461.1,335 h 4.1 c 2.3,0 3.5,1.6 3.5,3.3 0,1.7 -0.9,2.3 -1.7,2.7 l 2.2,4.3 h -2.9 l -1.8,-3.8 h -0.9 v 3.8 h -2.5 z m 4,4.3 c 0.7,0 1.1,-0.5 1.1,-1 0,-0.5 -0.4,-1 -1.1,-1 h -1.4 v 2.1 h 1.4 z"
       id="path11" />
    <path
       class="st1"
       d="m 482.2,335 h 2.5 v 3.6 l 3,-3.6 h 3.1 l -3.5,4.2 3.6,6.1 h -3 l -2.4,-4.2 -0.9,1 v 3.2 h -2.5 V 335 Z"
       id="path12" />
    <path
       class="st1"
       d="m 503.5,335 h 2.5 v 10.3 h -2.5 z"
       id="path13" />
    <path
       class="st1"
       d="m 519.7,335 h 2.2 l 3.3,5.2 V 335 h 2.5 v 10.3 h -2.2 l -3.3,-5.2 v 5.2 h -2.5 z"
       id="path14" />
    <path
       class="st1"
       d="m 542.2,344.2 c -1.1,-1.1 -1.1,-2.4 -1.1,-4.1 0,-1.7 0,-3.1 1.1,-4.1 1.1,-1 1.6,-1.1 2.9,-1.1 2.7,0 3.8,1.7 4,3.4 h -2.5 c -0.2,-0.8 -0.6,-1.2 -1.5,-1.2 -0.9,0 -0.8,0.2 -1,0.4 -0.2,0.3 -0.4,0.7 -0.4,2.5 0,1.8 0.1,2.2 0.4,2.5 0.2,0.2 0.5,0.4 1,0.4 0.5,0 0.9,-0.2 1.1,-0.4 0.3,-0.3 0.4,-0.7 0.4,-1.1 v 0 c 0,-0.1 -1.5,-0.1 -1.5,-0.1 v -2.1 h 4 v 1.4 c 0,1.7 -0.3,2.6 -1,3.4 -0.9,0.9 -1.9,1.2 -3,1.2 -1.1,0 -2.1,-0.4 -2.9,-1.1 z"
       id="path15" />
    <path
       class="st1"
       d="m 561.4,344 1.6,-1.6 c 0.5,0.5 1.5,0.7 2.3,0.7 0.8,0 1.5,-0.3 1.5,-0.9 0,-0.6 0,-0.4 -0.2,-0.6 -0.1,-0.1 -0.3,-0.2 -0.7,-0.3 l -1.2,-0.2 c -0.9,-0.1 -1.6,-0.4 -2.1,-0.9 -0.5,-0.5 -0.7,-1.2 -0.7,-2.1 0,-1.9 1.4,-3.3 3.8,-3.3 2.4,0 2.6,0.3 3.5,1.2 l -1.6,1.6 c -0.5,-0.5 -1.1,-0.6 -2,-0.6 -0.9,0 -1.2,0.5 -1.2,1 0,0.5 0,0.3 0.2,0.5 0.1,0.1 0.3,0.3 0.7,0.3 l 1.2,0.2 c 0.9,0.1 1.6,0.4 2,0.9 0.5,0.5 0.8,1.3 0.8,2.3 0,2.1 -1.8,3.2 -4,3.2 -2.2,0 -2.9,-0.3 -3.9,-1.4 z"
       id="path16" />
  </g>
  <polygon
     class="st2"
     points="422.4,276.8 420.2,276.8 420.2,319.4 382.5,319.4 382.5,276.8 380.3,276.8 380.3,319.4 342.6,319.4 342.6,276.8 340.4,276.8 340.4,319.4 302.7,319.4 302.7,276.8 300.5,276.8 300.5,319.4 262.8,319.4 262.8,276.8 260.6,276.8 260.6,319.4 232.2,319.4 232.2,321.1 571,321.1 571,319.4 542.1,319.4 542.1,276.8 540,276.8 540,319.4 502.2,319.4 502.2,276.8 500.1,276.8 500.1,319.4 462.3,319.4 462.3,276.8 460.2,276.8 460.2,319.4 422.4,319.4 "
     id="polygon16"
     transform="translate(-196.30001,-240.1)" />
  <g
     id="g25"
     transform="translate(-196.30001,-240.1)">
    <path
       class="st1"
       d="m 478.7,304 v -26.2 c 0,-0.4 0.2,-0.6 0.6,-0.6 h 3.5 c 0.4,0 0.6,0.2 0.6,0.6 V 304 c 0,0.4 -0.2,0.6 -0.6,0.6 h -3.5 c -0.4,0 -0.6,-0.2 -0.6,-0.6"
       id="path17" />
    <path
       class="st1"
       d="m 234.3,304.7 v -26.2 c 0,-0.4 0.2,-0.6 0.6,-0.6 h 7 c 1.4,0 2.7,0.3 3.8,1 1.1,0.7 2,1.6 2.7,2.9 0.6,1.2 1,2.7 1,4.3 v 1.7 c 0,1.6 -0.3,3.1 -1,4.3 -0.6,1.2 -1.5,2.1 -2.7,2.8 -1.1,0.6 -2.4,1 -3.8,1 h -2.2 c -0.2,0 -0.4,0 -0.5,0.1 0,0 -0.1,0.2 -0.1,0.4 v 8.4 c 0,0.4 -0.2,0.6 -0.6,0.6 H 235 c -0.4,0 -0.6,-0.2 -0.6,-0.6 m 9.2,-14.4 c 0.6,-0.7 0.9,-1.6 0.9,-2.9 V 286 c 0,-1.2 -0.3,-2.2 -0.9,-2.9 -0.6,-0.7 -1.4,-1 -2.3,-1 h -1.7 c -0.2,0 -0.4,0 -0.5,0.1 0,0 -0.1,0.2 -0.1,0.5 v 8.3 c 0,0.2 0,0.4 0.1,0.4 0,0 0.2,0.1 0.5,0.1 h 1.7 c 1,0 1.7,-0.3 2.3,-1"
       id="path18" />
    <path
       class="st1"
       d="m 273.8,304.7 v -26.2 c 0,-0.4 0.2,-0.6 0.6,-0.6 h 6.9 c 1.4,0 2.7,0.3 3.8,1 1.1,0.7 2,1.6 2.7,2.9 0.6,1.2 1,2.6 1,4.2 v 1.5 c 0,1.4 -0.3,2.7 -0.8,3.8 -0.5,1.1 -1.2,2 -2.1,2.6 -0.2,0.1 -0.3,0.3 -0.3,0.5 0,0.2 0,0.1 0,0.3 l 3.8,9.9 c 0,0.1 0.1,0.3 0.1,0.4 0,0.3 -0.2,0.4 -0.6,0.4 h -3.3 c -0.5,0 -0.9,-0.2 -1.1,-0.7 l -3.2,-8.6 c -0.1,-0.3 -0.4,-0.5 -0.7,-0.5 H 279 c -0.2,0 -0.4,0 -0.5,0.1 -0.1,0.1 -0.1,0.2 -0.1,0.5 v 8.5 c 0,0.4 -0.2,0.6 -0.6,0.6 h -3.5 c -0.4,0 -0.6,-0.2 -0.6,-0.6 M 283,290 c 0.6,-0.7 0.9,-1.6 0.9,-2.8 v -1.4 c 0,-1.2 -0.3,-2.1 -0.9,-2.8 -0.6,-0.7 -1.4,-1 -2.3,-1 h -1.6 c -0.2,0 -0.4,0 -0.5,0.1 0,0 -0.1,0.2 -0.1,0.5 v 7.8 c 0,0.2 0,0.4 0.1,0.5 0,0 0.2,0.1 0.5,0.1 h 1.6 c 1,0 1.7,-0.3 2.3,-1"
       id="path19" />
    <path
       class="st1"
       d="m 315.7,304.7 v -26.2 c 0,-0.4 0.2,-0.6 0.6,-0.6 h 10.6 c 0.4,0 0.6,0.2 0.6,0.6 v 3 c 0,0.4 -0.2,0.6 -0.6,0.6 H 321 c -0.2,0 -0.4,0 -0.5,0.1 0,0 -0.1,0.2 -0.1,0.5 v 6 c 0,0.2 0,0.4 0.1,0.5 0,0 0.2,0.1 0.5,0.1 h 4.8 c 0.4,0 0.6,0.2 0.6,0.6 v 3 c 0,0.4 -0.2,0.6 -0.6,0.6 H 321 c -0.2,0 -0.4,0 -0.5,0.1 0,0 -0.1,0.2 -0.1,0.5 v 6.4 c 0,0.2 0,0.4 0.1,0.5 0,0 0.2,0.1 0.5,0.1 h 5.9 c 0.4,0 0.6,0.2 0.6,0.6 v 3 c 0,0.4 -0.2,0.6 -0.6,0.6 h -10.6 c -0.4,0 -0.6,-0.2 -0.6,-0.6"
       id="path20" />
    <path
       class="st1"
       d="m 355.7,303.2 c -1.3,-1.6 -2,-3.8 -2,-6.5 v -10.3 c 0,-2.7 0.7,-4.9 2,-6.5 1.3,-1.6 3.3,-2.4 5.9,-2.4 2.6,0 4.4,0.8 5.7,2.3 1.3,1.5 2,3.5 2,6 0,2.5 0,0.3 0,0.4 0,0 -0.2,0.1 -0.3,0.1 h -3.7 c -0.3,0 -0.5,-0.2 -0.6,-0.5 0,-1.3 -0.3,-2.2 -0.8,-2.9 -0.4,-0.7 -1.2,-1 -2.3,-1 -1.1,0 -1.9,0.3 -2.4,1 -0.5,0.7 -0.7,1.6 -0.7,2.9 v 11.4 c 0,1.2 0.2,2.2 0.7,2.9 0.5,0.7 1.3,1 2.4,1 1.1,0 1.9,-0.3 2.3,-1 0.4,-0.7 0.7,-1.6 0.8,-2.9 0,-0.3 0.2,-0.5 0.6,-0.5 h 3.7 c 0.2,0 0.3,0 0.3,0.1 0,0 0,0.2 0,0.4 0,2.5 -0.7,4.5 -2,6 -1.3,1.5 -3.2,2.3 -5.7,2.3 -2.5,0 -4.6,-0.8 -5.9,-2.4"
       id="path21" />
    <path
       class="st1"
       d="m 448,302.4 c -0.8,1.1 -1.8,1.9 -3,2.4 -1.2,0.5 -2.5,0.8 -3.7,0.8 -1.2,0 -2.8,-0.3 -4,-0.9 -1.2,-0.6 -2.1,-1.5 -2.8,-2.6 -0.7,-1.1 -1,-2.5 -1,-4.1 0,-1.6 0.1,-0.5 0.4,-0.5 h 3.4 c 0.3,0 0.5,0.2 0.5,0.5 0,1 0.4,1.8 0.9,2.6 0.6,0.7 1.4,1.1 2.5,1.1 1.1,0 1.7,-0.3 2.2,-0.9 0.6,-0.6 0.8,-1.4 0.8,-2.3 0,-0.9 -0.4,-1.9 -1.1,-2.7 -0.7,-0.8 -1.9,-1.8 -3.4,-2.9 -1.3,-1 -2.3,-1.8 -3.2,-2.6 -0.8,-0.7 -1.5,-1.6 -2.1,-2.6 -0.6,-1 -0.8,-2.1 -0.8,-3.4 0,-1.3 0.3,-2.4 0.9,-3.4 0.6,-1 1.4,-1.8 2.5,-2.4 1.1,-0.6 2.4,-0.9 3.8,-0.9 2.3,0 4.1,0.7 5.3,2 1.2,1.3 1.9,3 1.9,5.2 0,2.2 0,0.3 0,0.4 0,0 -0.2,0.1 -0.3,0.1 h -3.4 c -0.3,0 -0.5,-0.2 -0.5,-0.5 0,-0.9 -0.3,-1.6 -0.8,-2.2 -0.5,-0.6 -1.1,-1 -1.9,-1 -0.8,0 -1.4,0.2 -1.8,0.7 -0.4,0.5 -0.7,1 -0.7,1.7 0,0.7 0.3,1.6 1,2.3 0.7,0.7 1.7,1.7 3.2,2.8 1.3,1.1 2.4,2 3.3,2.8 0.8,0.8 1.6,1.8 2.2,2.9 0.6,1.1 0.9,2.3 0.9,3.7 0,1.4 -0.4,2.9 -1.2,3.9"
       id="path22" />
    <path
       class="st1"
       d="m 553,304.7 v -26.2 c 0,-0.4 0.2,-0.6 0.6,-0.6 h 2.7 c 0.2,0 0.4,0 0.5,0.1 0.1,0 0.2,0.3 0.4,0.5 l 6.8,14.7 c 0,0 0.1,0.1 0.2,0.1 0,0 0.1,0 0.1,-0.2 v -14.6 c 0,-0.4 0.2,-0.6 0.6,-0.6 h 3.6 c 0.4,0 0.6,0.2 0.6,0.6 v 26.2 c 0,0.4 -0.2,0.6 -0.6,0.6 h -2.7 c -0.4,0 -0.6,-0.2 -0.8,-0.6 l -6.8,-14.6 c 0,0 -0.1,-0.1 -0.2,-0.1 -0.1,0 -0.1,0 -0.1,0.2 v 14.5 c 0,0.4 -0.2,0.6 -0.6,0.6 h -3.5 c -0.4,0 -0.6,-0.2 -0.6,-0.6"
       id="path23" />
    <path
       class="st1"
       d="m 398.1,304 v -26.2 c 0,-0.4 0.2,-0.6 0.6,-0.6 h 3.5 c 0.4,0 0.6,0.2 0.6,0.6 V 304 c 0,0.4 -0.2,0.6 -0.6,0.6 h -3.5 c -0.4,0 -0.6,-0.2 -0.6,-0.6"
       id="path24" />
    <path
       class="st1"
       d="m 515.3,302.8 c -1.3,-1.6 -2,-3.9 -2,-6.7 v -9.8 c 0,-2.8 0.7,-5.1 2,-6.7 1.3,-1.6 3.3,-2.5 5.9,-2.5 2.6,0 4.6,0.8 5.9,2.5 1.3,1.6 2,3.9 2,6.7 v 9.8 c 0,2.8 -0.7,5.1 -2,6.7 -1.3,1.6 -3.3,2.5 -5.9,2.5 -2.6,0 -4.6,-0.8 -5.9,-2.5 m 8.3,-3.3 c 0.5,-0.9 0.7,-2 0.7,-3.4 v -9.9 c 0,-1.4 -0.2,-2.6 -0.7,-3.4 -0.5,-0.9 -1.3,-1.3 -2.4,-1.3 -1.1,0 -1.9,0.4 -2.4,1.3 -0.5,0.9 -0.7,2 -0.7,3.4 v 9.9 c 0,1.4 0.2,2.5 0.7,3.4 0.5,0.9 1.3,1.3 2.4,1.3 1.1,0 1.9,-0.4 2.4,-1.3"
       id="path25" />
  </g>
</svg>
